<?xml version="1.0" standalone="no"?>
<!DOCTYPE svg PUBLIC "-//W3C//DTD SVG 20010904//EN"
 "http://www.w3.org/TR/2001/REC-SVG-20010904/DTD/svg10.dtd">
<svg version="1.0" xmlns="http://www.w3.org/2000/svg"
 width="3314.000000pt" height="4973.000000pt" viewBox="0 0 3314.000000 4973.000000"
 preserveAspectRatio="xMidYMid meet">

<g transform="translate(0.000000,4973.000000) scale(0.100000,-0.100000)"
fill="#000000" stroke="none">
<path d="M19560 47308 c0 -6 44 -75 56 -87 2 -2 4 3 4 12 0 16 -59 90 -60 75z"/>
<path d="M18949 47158 c-3 -32 4 -68 23 -123 27 -77 26 -184 -3 -263 -11 -32
-26 -76 -34 -100 -7 -24 -24 -54 -37 -67 -38 -39 -48 -53 -48 -73 0 -11 -9
-22 -20 -25 -14 -4 -20 -14 -20 -34 0 -22 -2 -25 -10 -13 -7 11 -10 3 -10 -28
0 -26 -4 -41 -10 -37 -6 4 -10 -6 -10 -24 0 -20 -6 -32 -19 -36 -10 -3 -21
-19 -25 -35 -3 -18 -12 -30 -21 -30 -8 0 -15 -9 -15 -20 0 -11 6 -20 14 -20
14 0 17 -35 4 -55 -27 -45 -88 -169 -88 -180 0 -8 -12 -27 -26 -42 -14 -15
-30 -38 -35 -50 -5 -13 -14 -23 -21 -23 -19 -1 -61 -70 -43 -70 8 0 17 5 21
11 3 6 36 30 73 54 36 24 80 58 97 76 17 19 57 58 90 87 32 29 63 56 68 61 30
32 52 52 108 101 35 30 104 98 153 151 72 77 98 99 131 108 55 14 110 4 142
-28 38 -36 85 -71 95 -71 5 0 27 18 49 40 23 22 44 40 47 40 3 0 22 14 41 31
125 108 199 175 203 184 16 36 -31 191 -100 333 -23 48 -28 52 -62 53 -70 2
-101 -8 -101 -35 0 -11 45 -36 65 -36 6 0 17 -9 25 -20 8 -11 19 -20 26 -20
23 0 44 -37 44 -77 0 -24 6 -46 15 -53 19 -16 19 -59 0 -84 -8 -11 -15 -16
-15 -10 -1 5 -8 0 -18 -12 -9 -11 -42 -28 -72 -38 -87 -27 -88 -28 -60 -36 16
-5 -8 -8 -66 -9 -94 -1 -91 -2 -151 49 -7 5 -26 10 -44 10 -22 0 -32 5 -36 20
-3 12 -19 23 -40 29 -33 9 -113 83 -113 104 0 5 -8 21 -19 35 -10 15 -25 47
-34 72 -46 132 -92 240 -103 240 -2 0 -4 -6 -5 -12z"/>
<path d="M24640 47095 c0 -23 3 -25 50 -25 28 0 50 5 50 10 0 6 9 10 20 10 11
0 20 7 20 15 0 12 -14 15 -70 15 -68 0 -70 -1 -70 -25z"/>
<path d="M24483 47013 c-13 -2 -23 -11 -23 -19 0 -8 -9 -14 -20 -14 -12 0 -20
7 -20 18 0 14 -2 14 -9 3 -5 -8 -16 -11 -26 -7 -28 10 -55 -3 -55 -28 0 -40
-43 -66 -116 -71 -51 -3 -66 -1 -71 10 -4 11 -23 15 -74 15 -39 0 -69 -4 -69
-10 0 -5 -7 -10 -15 -10 -8 0 -15 -4 -15 -10 0 -5 -9 -10 -20 -10 -11 0 -20
-5 -20 -11 0 -11 -131 -6 -150 6 -11 7 -30 -27 -30 -54 0 -16 -6 -21 -26 -21
-15 0 -23 4 -19 10 4 7 -2 9 -19 4 -16 -4 -26 -2 -26 5 0 6 -9 11 -20 11 -13
0 -20 7 -20 20 0 13 -7 20 -20 20 -11 0 -20 7 -20 15 0 8 -9 15 -20 15 -13 0
-20 7 -20 20 0 17 -7 20 -40 20 -29 0 -40 4 -40 15 0 12 -16 15 -84 15 -49 0
-88 -4 -91 -11 -4 -6 -14 -8 -22 -5 -9 4 -22 1 -31 -6 -8 -7 -18 -12 -21 -12
-3 1 -16 -2 -29 -7 -13 -5 -30 -9 -38 -9 -8 0 -14 -4 -14 -8 0 -5 -25 -15 -56
-22 -35 -9 -62 -22 -74 -37 -14 -18 -34 -26 -78 -33 -33 -4 -68 -13 -78 -18
-11 -6 -34 -12 -53 -15 -19 -3 -37 -10 -40 -16 -3 -5 -13 -11 -21 -13 -8 -2
-25 -13 -38 -24 -13 -12 -32 -20 -42 -17 -10 3 -27 -7 -43 -26 -14 -17 -32
-31 -39 -31 -9 0 -9 -3 2 -10 12 -8 11 -10 -8 -10 -17 0 -26 -8 -33 -30 -6
-16 -16 -30 -22 -30 -5 0 -28 -18 -49 -40 -22 -22 -48 -40 -58 -40 -10 0 -54
-12 -97 -26 -56 -18 -82 -32 -89 -47 -6 -14 -21 -24 -44 -27 -45 -8 -60 -17
-60 -38 0 -10 -9 -23 -21 -30 -11 -7 -18 -19 -16 -27 9 -22 -30 -24 -52 -3
-24 22 -41 16 -41 -13 0 -11 -6 -19 -12 -17 -24 5 -79 -27 -84 -48 -7 -25 -87
-68 -115 -61 -10 3 -22 1 -25 -4 -3 -5 -16 -9 -29 -9 -13 0 -30 -7 -39 -15 -8
-8 -20 -15 -26 -15 -13 0 -71 -38 -81 -53 -3 -5 -22 -18 -42 -30 -19 -12 -45
-34 -56 -49 -15 -18 -27 -25 -42 -21 -22 6 -22 9 -3 101 5 26 2 36 -12 47 -25
18 -31 12 -39 -34 -5 -29 -12 -41 -29 -45 -12 -3 -33 -15 -46 -26 -13 -11 -29
-20 -37 -20 -18 0 -56 -22 -66 -37 -18 -29 -56 2 -57 45 0 19 -4 22 -22 17
-48 -15 -107 -56 -127 -90 -11 -19 -25 -35 -32 -35 -6 0 -20 -11 -31 -25 -26
-33 -56 -32 -68 1 -8 21 -5 36 15 77 30 59 29 91 -2 95 -13 2 -23 -2 -23 -8 0
-6 -19 -33 -41 -60 -35 -42 -45 -48 -60 -39 -11 5 -24 7 -29 4 -22 -14 -48 6
-55 41 -8 43 -31 43 -55 -1 -9 -16 -23 -31 -31 -33 -13 -2 -14 7 -6 62 15 99
-6 126 -39 48 -18 -44 -52 -82 -68 -76 -14 5 -76 -32 -76 -46 0 -21 -21 -9
-40 23 -11 17 -20 26 -20 19 0 -7 -4 -11 -9 -7 -5 3 -21 -18 -35 -47 -28 -56
-121 -162 -134 -154 -19 11 -62 14 -62 4 0 -6 -3 -9 -6 -5 -3 3 -35 -10 -70
-29 -69 -37 -99 -42 -124 -19 -15 13 -22 11 -68 -22 -29 -20 -52 -40 -52 -44
0 -5 -8 -9 -19 -9 -24 0 -135 -47 -211 -89 -43 -24 -90 -39 -95 -31 -6 10 -37
-4 -63 -28 -8 -7 -27 -15 -42 -19 -16 -3 -32 -15 -39 -30 -8 -17 -16 -23 -30
-18 -10 3 -24 -1 -31 -10 -7 -8 -29 -19 -49 -25 -24 -6 -42 -20 -54 -41 -16
-28 -21 -31 -51 -25 -29 6 -35 3 -41 -14 -3 -11 -15 -20 -25 -20 -11 0 -26
-13 -35 -30 -9 -17 -27 -33 -42 -36 -27 -7 -33 -12 -92 -66 -21 -18 -37 -26
-39 -20 -2 7 -8 12 -14 12 -6 0 -8 -6 -5 -14 3 -8 -3 -22 -13 -31 -10 -9 -24
-31 -30 -48 -7 -18 -16 -41 -20 -52 -4 -11 -8 -31 -8 -45 -1 -14 -6 -26 -12
-28 -5 -2 -10 -12 -10 -23 0 -10 -6 -19 -14 -19 -8 0 -49 -17 -91 -39 -64 -32
-84 -38 -120 -34 -25 3 -45 1 -49 -6 -4 -6 -14 -11 -22 -11 -8 0 -31 -16 -50
-35 -26 -26 -49 -38 -84 -45 -27 -5 -67 -21 -88 -35 -37 -24 -145 -50 -163
-39 -5 3 -9 0 -9 -5 0 -6 -3 -10 -7 -9 -5 1 -19 -5 -33 -14 -27 -17 -90 -23
-90 -8 0 11 53 50 103 75 20 11 48 30 62 43 14 12 33 26 43 30 11 4 44 30 75
58 62 57 62 73 0 81 -35 5 -42 2 -61 -23 -30 -40 -36 -46 -71 -73 -17 -13 -31
-28 -31 -35 0 -24 -40 -46 -84 -46 -43 0 -74 -19 -62 -39 3 -5 -8 -14 -24 -20
-20 -6 -30 -17 -30 -30 0 -15 -12 -23 -57 -35 -109 -30 -108 -29 -111 -61 -2
-17 -10 -44 -18 -62 -7 -17 -14 -35 -14 -40 0 -48 -113 -183 -153 -183 -14 0
-29 -4 -32 -10 -3 -5 -2 -10 4 -10 5 0 23 -13 38 -30 16 -17 52 -38 85 -48 53
-18 64 -18 140 -5 46 8 90 21 99 29 8 8 21 14 27 14 22 0 111 96 147 158 34
58 58 73 54 34 -3 -36 1 -62 11 -62 6 0 10 7 10 16 0 29 33 74 55 74 11 0 32
8 45 17 58 41 251 67 314 43 15 -5 40 -25 56 -44 17 -19 42 -37 56 -40 24 -6
25 -10 24 -64 -1 -31 3 -75 8 -97 11 -51 4 -111 -14 -126 -8 -6 -14 -18 -14
-25 0 -7 -15 -21 -32 -30 -18 -9 -41 -25 -51 -35 -10 -11 -27 -19 -38 -19 -11
0 -22 -7 -25 -15 -4 -8 -10 -13 -14 -10 -4 3 -29 -19 -55 -48 -86 -96 -98
-107 -112 -107 -7 0 -13 -6 -13 -13 0 -12 -34 -47 -46 -47 -12 0 -64 -45 -64
-56 0 -6 -10 -14 -22 -17 -26 -7 -88 17 -88 34 0 7 -3 10 -6 6 -12 -11 17
-107 32 -107 8 0 19 -11 25 -24 16 -33 92 -56 191 -56 44 0 87 4 96 9 9 4 29
11 44 15 l28 6 -6 -74 c-4 -40 -4 -89 0 -108 5 -30 10 -35 34 -34 15 1 34 -5
42 -12 78 -67 172 -102 275 -102 73 0 114 12 171 51 37 25 101 96 129 144 9
15 15 16 32 6 19 -10 22 -8 25 16 l3 27 35 -38 c53 -58 100 -76 201 -76 68 0
98 5 150 25 35 14 69 31 74 38 6 7 33 27 61 45 54 34 295 274 335 334 13 19
42 61 63 94 22 32 58 77 80 99 23 22 61 65 85 95 25 30 76 89 113 132 37 42
68 81 68 87 0 6 4 11 9 11 11 0 51 66 51 84 0 8 6 19 14 25 8 7 54 64 102 128
48 64 136 164 195 222 58 58 110 116 113 129 8 25 15 27 50 11 21 -10 34 -8
75 9 28 11 68 35 90 53 33 26 46 30 73 26 34 -6 192 6 241 19 17 4 46 1 70 -7
31 -10 41 -11 45 -1 2 7 12 12 22 12 11 0 43 8 72 19 57 20 216 46 260 42 14
-1 29 2 33 8 3 6 21 11 38 11 22 0 28 3 18 9 -15 9 14 14 199 30 108 9 149 19
129 32 -8 4 -10 11 -6 16 4 4 16 3 25 -3 11 -6 86 -8 207 -4 149 5 195 9 215
22 17 11 58 17 127 21 81 4 110 10 142 28 22 12 38 26 36 30 -8 11 23 19 76
19 27 0 49 5 49 10 0 6 7 10 16 10 8 0 12 -4 9 -10 -3 -5 3 -10 14 -10 12 0
21 4 21 9 0 7 22 15 75 27 6 1 25 2 43 3 21 1 31 5 26 12 -4 6 1 10 12 8 11
-1 40 3 65 10 38 11 46 16 42 32 -6 22 5 24 29 5 18 -13 78 -10 78 5 0 5 13 9
28 9 15 0 32 4 38 10 5 5 61 23 124 40 93 24 124 28 165 22 28 -4 93 -5 145 0
97 7 405 -7 450 -21 17 -6 29 -4 38 5 7 7 20 10 30 7 14 -6 13 -8 -8 -14 -16
-5 2 -7 47 -7 40 1 78 -3 85 -9 7 -6 36 -13 63 -16 107 -12 142 -19 209 -40
51 -15 71 -17 74 -9 6 19 35 14 66 -13 17 -15 40 -24 55 -23 14 1 35 -3 46 -9
19 -10 156 -34 272 -48 29 -4 57 -13 64 -21 6 -8 29 -14 51 -14 22 0 46 -7 54
-15 15 -15 34 -18 108 -17 22 0 46 -6 53 -14 9 -9 38 -14 76 -15 50 -1 56 -3
32 -9 -22 -6 -25 -8 -10 -10 11 -1 24 -2 28 -1 5 1 25 -3 45 -10 20 -6 62 -17
92 -24 30 -8 81 -20 112 -28 48 -13 56 -13 51 -1 -3 8 -16 14 -29 14 -13 0
-24 4 -24 8 0 10 30 9 48 -2 7 -4 20 -5 30 -2 12 4 26 -1 37 -14 10 -11 25
-18 34 -16 9 2 36 1 61 -4 40 -7 41 -8 12 -9 -18 0 -31 -5 -28 -10 9 -13 79
-23 158 -23 44 1 72 -4 81 -12 7 -8 32 -17 55 -21 23 -4 42 -10 42 -15 0 -7
21 -12 120 -26 25 -4 50 -11 57 -16 6 -5 57 -10 113 -12 86 -3 107 -7 131 -25
27 -20 31 -20 45 -6 25 24 79 13 79 -16 0 -15 53 -31 77 -23 9 3 34 -3 55 -12
21 -9 68 -17 105 -17 37 -1 59 -5 50 -9 -19 -8 -5 -10 88 -13 30 -1 57 -3 60
-4 3 -2 20 -4 38 -4 18 -1 37 -8 41 -16 5 -8 30 -16 58 -18 26 -3 68 -6 93 -8
132 -11 172 -18 177 -31 3 -8 20 -14 42 -14 20 -1 47 -7 60 -14 14 -8 31 -12
38 -9 7 3 20 0 28 -7 8 -6 19 -9 24 -6 6 4 46 -5 91 -20 44 -14 104 -27 133
-29 28 -1 67 -5 85 -8 18 -4 32 -2 32 4 0 13 53 -1 63 -18 4 -7 15 -13 22 -13
8 0 15 -4 15 -10 0 -14 77 -13 82 1 5 14 98 -26 98 -41 0 -6 13 -9 28 -8 15 1
33 -2 40 -6 7 -4 41 -7 74 -7 43 0 72 -6 93 -18 40 -25 91 -33 205 -35 69 -1
94 -4 93 -13 -2 -7 7 -17 18 -24 17 -9 20 -8 14 2 -6 9 -3 10 11 4 42 -17 102
-33 107 -28 3 2 14 0 25 -6 11 -6 51 -13 90 -16 39 -2 92 -9 117 -15 26 -6 51
-7 57 -4 7 4 8 2 4 -4 -4 -7 0 -12 11 -13 12 -1 10 -3 -7 -8 -16 -5 8 -9 72
-13 56 -3 104 -11 113 -18 10 -8 29 -10 55 -6 25 4 40 2 40 -4 0 -5 14 -10 30
-10 17 0 30 5 30 10 0 18 49 11 62 -9 8 -14 18 -17 37 -11 21 5 31 1 49 -19
18 -21 24 -23 31 -12 7 11 10 11 17 -1 9 -16 132 -40 190 -39 17 1 62 -6 100
-14 105 -24 234 -44 285 -45 26 0 63 -7 82 -15 20 -8 67 -15 104 -15 37 0 86
-5 108 -10 70 -17 208 -32 284 -31 40 0 81 -4 91 -9 9 -5 75 -11 146 -14 71
-2 135 -5 142 -5 7 -1 11 -5 8 -10 -4 -5 22 -12 56 -14 87 -8 283 -26 342 -32
30 -3 54 -1 63 7 11 9 16 9 24 -3 5 -8 9 -10 9 -6 0 4 9 3 21 -4 12 -6 94 -17
182 -25 89 -8 176 -17 193 -20 21 -4 36 -1 47 10 10 11 18 12 22 6 4 -6 14
-10 23 -9 10 1 42 1 72 0 40 -1 51 -4 40 -11 -11 -7 -7 -10 18 -10 l32 0 0
279 0 280 -70 7 c-38 3 -70 11 -70 15 0 5 -73 9 -163 9 -116 0 -167 4 -175 12
-9 9 -81 14 -257 16 -153 3 -245 8 -245 14 0 6 -16 8 -40 4 -22 -3 -58 -9 -80
-12 -32 -5 -40 -3 -40 9 0 19 -42 35 -48 18 -4 -13 -52 -15 -52 -2 0 12 -41
21 -134 30 -46 4 -82 13 -84 19 -2 8 -29 12 -72 12 -38 0 -72 5 -75 10 -4 6
-10 8 -15 5 -5 -3 -11 -1 -15 4 -3 7 -19 4 -40 -6 -26 -12 -35 -23 -36 -42 0
-14 -3 -20 -6 -13 -2 6 -13 12 -24 12 -10 0 -19 6 -19 14 0 20 -22 26 -98 27
-37 0 -105 7 -152 16 -118 21 -270 25 -270 7 0 -8 -9 -14 -20 -14 -15 0 -20 7
-20 25 0 15 -9 31 -24 40 -23 15 -37 15 -108 -1 -17 -3 -28 -1 -28 5 0 6 -9
11 -20 11 -11 0 -20 4 -20 9 0 13 -64 23 -161 25 -69 1 -90 5 -104 20 -14 14
-27 17 -57 12 -23 -4 -38 -2 -38 4 0 14 -193 13 -224 -1 -18 -9 -36 -9 -69 -1
-24 6 -121 12 -215 12 -97 1 -172 6 -172 11 0 5 -9 9 -20 9 -11 0 -20 4 -20 9
0 6 -21 13 -47 17 -28 4 -55 15 -65 27 -15 16 -27 19 -83 15 -36 -2 -65 0 -65
4 0 4 -15 8 -33 8 -18 0 -37 4 -42 9 -6 6 -36 11 -67 12 -37 2 -58 7 -58 14 0
18 -49 25 -171 25 -66 0 -109 4 -109 10 0 6 -27 10 -60 10 -33 0 -60 -4 -60
-9 0 -16 -61 -21 -101 -8 -37 11 -39 14 -39 54 0 35 -3 43 -18 43 -11 0 -29 9
-42 20 -13 12 -29 18 -36 16 -7 -3 -27 2 -44 10 -34 17 -70 13 -94 -11 -17
-17 -46 -20 -46 -5 0 6 -9 10 -20 10 -11 0 -20 5 -20 10 0 13 -16 13 -65 -2
-38 -11 -39 -12 -15 -19 25 -7 25 -7 -3 -8 -21 -1 -30 5 -34 19 -3 11 -14 20
-24 20 -11 0 -19 4 -19 9 0 5 -13 11 -29 14 -16 3 -35 12 -43 20 -7 8 -44 17
-81 21 -37 4 -74 14 -81 22 -31 31 -113 13 -129 -28 -4 -10 -8 -9 -17 2 -9 11
-13 12 -17 3 -6 -15 -83 -18 -83 -3 0 6 -7 10 -15 10 -8 0 -15 4 -15 9 0 5
-14 24 -31 42 l-32 34 -91 -2 c-50 -1 -128 0 -173 3 -69 5 -83 9 -88 25 -9 28
-35 38 -116 43 -40 2 -75 9 -77 15 -2 6 -12 11 -21 11 -10 0 -30 11 -45 25
-16 15 -44 27 -69 31 -23 3 -49 8 -57 11 -8 4 -23 5 -32 4 -10 -1 -18 3 -18 8
0 6 -9 11 -20 11 -11 0 -20 4 -20 9 0 13 -114 31 -193 31 -38 0 -67 4 -67 10
0 6 -9 10 -20 10 -11 0 -20 -4 -20 -10 0 -5 -9 -10 -20 -10 -11 0 -20 5 -20
10 0 6 -9 10 -20 10 -11 0 -20 4 -20 9 0 5 -18 12 -40 16 -30 5 -40 11 -40 25
0 10 -9 22 -20 25 -11 3 -20 11 -20 16 0 16 -27 39 -44 39 -9 0 -16 6 -16 13
0 7 -9 19 -20 27 -11 8 -20 22 -20 32 0 13 -8 18 -25 18 -20 0 -25 -5 -25 -24
0 -13 -7 -27 -16 -30 -25 -10 -74 -7 -74 4 0 6 -30 10 -70 10 -63 0 -70 2 -70
20 0 10 -6 23 -14 27 -8 4 -16 19 -18 33 -2 20 -11 27 -45 34 -24 5 -43 15
-43 22 0 7 -6 15 -12 18 -10 5 -10 7 0 12 22 10 13 19 -33 33 -33 10 -45 18
-45 32 0 30 -25 82 -53 113 -25 27 -26 27 -36 7 -6 -11 -11 -29 -11 -40 0 -19
-6 -21 -66 -21 -40 0 -70 -5 -78 -13 -20 -20 -179 -23 -198 -3 -10 9 -42 16
-94 19 -43 2 -121 15 -172 29 -120 34 -220 44 -265 27 -29 -10 -43 -9 -86 5
-37 12 -68 15 -114 10 -68 -6 -117 6 -117 31 0 8 -9 15 -20 15 -12 0 -20 7
-20 16 0 14 -9 16 -70 10 l-70 -7 0 25 0 25 96 -6 c77 -5 98 -3 105 8 8 12 11
12 20 -1 8 -11 12 -12 16 -2 2 6 13 12 24 12 10 0 19 5 19 10 0 6 15 10 34 10
19 0 36 6 38 13 4 9 36 12 124 10 483 -6 553 -5 570 11 8 9 23 16 32 16 34 0
45 15 31 41 -20 39 -36 49 -73 49 -19 0 -37 4 -40 9 -3 4 -29 11 -58 15 -69 8
-69 8 -100 2 -14 -3 -39 -1 -55 5 -15 6 -53 13 -83 14 -130 8 -249 30 -261 48
-10 15 -138 14 -144 0 -2 -7 -18 -13 -35 -13 -17 0 -29 4 -26 9 8 13 -18 31
-50 35 -37 5 -64 16 -64 26 0 4 -9 10 -20 13 -13 3 -20 14 -20 30 0 19 6 26
29 30 16 3 36 13 44 22 9 8 25 15 36 15 12 0 21 5 21 11 0 5 4 8 8 5 5 -3 23
8 41 25 18 16 37 27 41 24 5 -3 24 2 42 12 18 9 36 17 39 18 10 0 39 33 39 44
0 6 9 11 20 11 11 0 20 -7 20 -15 0 -8 9 -15 20 -15 13 0 20 7 20 20 0 15 7
20 26 20 42 0 54 21 54 94 0 58 -2 66 -19 66 -11 0 -21 4 -23 10 -3 10 -121
21 -155 13z m-793 -803 c15 -18 33 -22 111 -25 99 -5 129 -11 129 -25 0 -9
-13 -13 -77 -24 -28 -5 -33 -2 -33 14 0 18 -7 20 -60 20 -33 0 -60 -4 -60 -10
0 -5 11 -10 24 -10 26 0 43 -30 30 -51 -10 -16 -195 -4 -206 13 -5 9 -1 14 12
16 27 5 27 42 0 42 -11 0 -20 5 -20 10 0 6 9 10 20 10 13 0 20 7 20 20 0 17 7
20 46 20 35 0 51 -5 64 -20z m471 -39 c-8 -5 -20 -7 -28 -4 -21 8 -15 13 15
13 20 0 23 -3 13 -9z m1382 -278 c-7 -2 -21 -2 -30 0 -10 3 -4 5 12 5 17 0 24
-2 18 -5z m-3716 -99 c-3 -3 -12 -4 -19 -1 -8 3 -5 6 6 6 11 1 17 -2 13 -5z
m-117 -30 c0 -2 -19 -4 -42 -3 -31 0 -37 3 -24 8 18 7 66 3 66 -5z m-683 -90
c-3 -3 -12 -4 -19 -1 -8 3 -5 6 6 6 11 1 17 -2 13 -5z m-472 -129 c4 -41 11
-75 16 -75 5 0 9 -17 9 -38 0 -65 -35 -80 -83 -37 -23 22 -32 25 -60 17 -40
-11 -57 -6 -57 18 0 20 -26 35 -35 20 -4 -6 -17 -10 -31 -10 -14 0 -23 4 -19
9 3 5 1 12 -5 16 -16 10 -11 41 10 60 11 10 20 23 20 30 0 37 66 60 187 64
l41 1 7 -75z m-545 -24 c5 -11 10 -24 10 -30 0 -23 -186 -198 -230 -218 -25
-11 -54 -30 -65 -42 -11 -13 -34 -29 -53 -36 -34 -15 -92 -10 -92 7 0 5 -4 6
-10 3 -5 -3 -10 -14 -10 -23 0 -30 -77 -110 -113 -117 -17 -4 -38 -12 -44 -17
-15 -12 -18 -4 -27 58 -4 32 -2 43 9 48 8 3 15 12 15 19 0 42 132 216 164 217
5 0 18 8 28 17 10 9 33 22 51 29 18 6 48 18 67 25 19 7 53 21 76 31 22 10 51
18 65 18 13 0 33 7 43 15 30 23 103 20 116 -4z m423 -213 c20 -10 37 -23 37
-28 0 -5 18 -19 40 -31 22 -12 42 -31 46 -42 9 -30 -4 -67 -25 -67 -10 0 -21
-9 -24 -20 -3 -11 -16 -24 -29 -29 -12 -6 -34 -24 -48 -41 -62 -78 -129 -140
-180 -165 -58 -29 -72 -43 -66 -62 6 -15 -23 -39 -58 -47 -16 -4 -49 -21 -74
-38 -28 -20 -47 -27 -51 -20 -4 7 -47 12 -101 14 l-95 3 -3 33 c-3 32 16 92
30 92 4 0 17 21 30 47 22 47 66 93 307 326 l111 107 58 -6 c31 -4 74 -15 95
-26z m967 -258 c0 -5 -4 -10 -10 -10 -5 0 -10 5 -10 10 0 6 5 10 10 10 6 0 10
-4 10 -10z m-2359 -392 c18 -29 44 -75 59 -103 96 -179 130 -245 130 -254 0
-21 -15 -10 -31 22 -24 49 -117 224 -160 300 -36 64 -45 87 -35 87 2 0 19 -24
37 -52z m751 -416 c11 -10 16 -23 12 -37 -3 -13 -1 -26 5 -29 15 -10 13 -83
-4 -131 -8 -22 -15 -49 -15 -59 0 -11 -4 -33 -10 -50 -5 -17 -12 -42 -14 -56
-3 -14 -21 -42 -41 -63 -19 -21 -35 -42 -35 -48 0 -5 -11 -15 -25 -21 -14 -6
-25 -20 -25 -30 0 -10 -11 -23 -24 -29 -13 -6 -26 -19 -29 -29 -4 -17 -14 -20
-114 -35 -37 -6 -43 -11 -53 -40 -6 -19 -20 -37 -31 -40 -10 -4 -19 -10 -19
-14 0 -4 -6 -8 -12 -8 -7 0 -32 -5 -56 -11 -25 -6 -44 -6 -48 -1 -3 5 -9 7
-14 4 -12 -7 -24 13 -50 82 -41 113 -13 243 66 313 35 31 96 42 109 20 4 -6
12 -7 18 -3 6 4 23 6 38 5 16 -1 29 4 33 13 9 25 31 17 43 -15 l11 -30 -66 0
-67 -1 35 -29 c25 -22 45 -30 72 -30 36 0 109 27 116 43 2 4 8 7 14 7 17 0 37
33 38 61 0 15 -12 36 -30 54 -16 16 -30 35 -30 42 0 22 -61 72 -96 79 -38 7
-40 12 -20 39 8 11 20 16 29 12 9 -3 19 -2 22 3 4 6 14 10 23 10 10 0 25 9 35
20 11 13 29 20 52 20 19 0 35 5 35 11 0 5 4 7 10 4 5 -3 22 1 37 8 29 16 48
13 75 -11z m11238 -22 c0 -5 -11 -10 -25 -10 -14 0 -25 5 -25 10 0 6 11 10 25
10 14 0 25 -4 25 -10z m-11966 -35 c28 -26 29 -29 26 -90 -2 -57 -19 -115 -33
-115 -7 0 -6 -4 3 -10 8 -5 10 -10 4 -10 -6 0 -14 -29 -17 -70 -8 -98 -63
-209 -103 -210 -6 0 -24 -10 -40 -22 -16 -13 -30 -22 -32 -20 -4 4 -53 -33
-100 -77 -21 -18 -47 -37 -59 -42 -13 -5 -23 -17 -23 -28 0 -31 -69 -82 -105
-79 -34 3 -42 20 -44 86 -2 102 60 265 139 362 20 25 49 76 65 114 29 70 80
153 120 193 16 17 41 25 91 32 38 4 72 9 75 10 3 0 18 -10 33 -24z m396 -115
c36 0 36 -61 0 -80 -41 -22 -103 33 -86 76 5 12 14 15 37 10 18 -3 39 -6 49
-6z m93 -52 c6 -18 -12 -50 -24 -43 -15 10 -11 55 5 55 8 0 16 -6 19 -12z
m13327 -8 c0 -5 -4 -10 -10 -10 -5 0 -10 5 -10 10 0 6 5 10 10 10 6 0 10 -4
10 -10z"/>
<path d="M18499 46280 c-32 -9 -69 -44 -69 -65 0 -9 -8 -18 -17 -21 -69 -21
-98 -73 -67 -119 9 -14 25 -25 35 -25 11 0 19 -4 19 -10 0 -19 32 -10 37 10 3
11 9 20 14 20 5 0 9 12 9 26 0 25 42 74 63 74 11 0 41 30 30 30 -4 0 3 6 16
13 33 16 36 32 12 56 -22 22 -39 24 -82 11z"/>
<path d="M26130 45845 c0 -9 9 -15 25 -15 16 0 25 6 25 15 0 9 -9 15 -25 15
-16 0 -25 -6 -25 -15z"/>
<path d="M17370 44969 c0 -5 5 -7 10 -4 6 3 10 8 10 11 0 2 -4 4 -10 4 -5 0
-10 -5 -10 -11z"/>
<path d="M17288 44808 c-37 -29 -135 -138 -173 -193 -33 -47 -77 -95 -86 -95
-9 0 15 74 34 105 44 69 58 95 50 95 -12 0 -96 -141 -137 -232 -81 -177 -110
-317 -110 -518 0 -121 3 -148 32 -260 36 -136 102 -291 164 -384 55 -83 175
-213 219 -238 25 -14 35 -26 32 -36 -5 -11 -1 -13 14 -8 14 4 41 -8 94 -45 41
-28 106 -71 144 -96 106 -69 153 -110 176 -156 12 -23 33 -64 48 -92 l26 -50
3 -665 c1 -366 2 -673 2 -682 0 -10 9 -27 20 -38 18 -18 28 -20 83 -14 36 4
72 15 86 25 13 11 31 19 39 19 36 0 -6 19 -48 22 -38 3 -45 6 -42 23 1 11 5
292 8 624 6 652 3 723 -43 815 -50 103 -82 131 -362 320 -183 124 -237 172
-326 293 -164 220 -242 479 -217 718 14 130 25 173 75 310 42 113 182 316 207
300 14 -9 54 55 42 67 -8 8 -20 1 -41 -23 -40 -44 -40 -20 0 25 22 26 29 43
27 65 l-3 29 -37 -30z m646 -2155 c7 -27 13 -88 14 -138 l0 -90 -9 77 c-4 43
-17 108 -29 146 -11 38 -20 75 -20 83 0 25 31 -30 44 -78z"/>
<path d="M31360 44700 c0 -5 5 -10 10 -10 6 0 10 5 10 10 0 6 -4 10 -10 10 -5
0 -10 -4 -10 -10z"/>
<path d="M30298 44313 c7 -3 16 -2 19 1 4 3 -2 6 -13 5 -11 0 -14 -3 -6 -6z"/>
<path d="M17360 43016 c0 -2 7 -9 15 -16 13 -11 14 -10 9 4 -5 14 -24 23 -24
12z"/>
<path d="M19820 40212 c0 -10 3 -22 8 -26 7 -7 8 -11 11 -38 1 -10 4 -9 10 1
8 12 12 12 26 -2 38 -38 33 -11 -7 41 -35 46 -48 52 -48 24z"/>
<path d="M19930 40057 c0 -16 4 -26 9 -23 5 3 11 -1 15 -9 5 -15 26 -21 26 -7
-1 4 -12 21 -25 37 l-25 30 0 -28z"/>
<path d="M19990 39975 c0 -8 -4 -15 -10 -15 -12 0 -9 -22 4 -31 4 -4 9 -22 11
-40 2 -19 3 -38 4 -43 1 -5 7 -3 14 3 8 6 18 7 22 3 5 -4 5 -1 1 6 -5 7 0 15
13 20 19 7 18 9 -15 60 -38 55 -44 61 -44 37z"/>
<path d="M20070 39851 c0 -5 7 -26 16 -46 9 -21 14 -50 11 -63 -3 -17 3 -32
19 -49 13 -13 24 -33 24 -44 0 -11 6 -19 13 -18 25 3 37 -1 37 -15 0 -8 -6
-17 -12 -19 -10 -4 -10 -6 0 -6 6 -1 12 -10 12 -21 0 -15 7 -20 27 -20 25 0
25 -1 9 -13 -17 -12 -17 -16 -3 -49 15 -36 24 -39 60 -23 13 5 23 0 40 -21 31
-38 30 -37 51 -54 11 -8 -5 19 -36 60 -30 41 -68 100 -83 130 -15 30 -31 57
-35 60 -3 3 -10 12 -14 20 -9 19 -21 39 -74 119 -23 35 -42 68 -42 73 0 4 -4
8 -10 8 -5 0 -10 -4 -10 -9z"/>
<path d="M20297 39403 c-3 -5 -2 -16 2 -26 6 -16 7 -16 23 2 14 17 15 20 1 25
-19 8 -21 8 -26 -1z"/>
<path d="M20390 39336 c0 -8 5 -18 10 -21 17 -10 12 -55 -6 -55 -8 0 -22 -6
-30 -14 -12 -13 -9 -17 20 -35 41 -26 45 -26 39 -1 -4 15 0 20 16 20 27 0 28
28 3 61 -10 13 -21 32 -25 42 -8 21 -27 23 -27 3z"/>
<path d="M17903 38880 c0 -25 2 -35 4 -22 2 12 2 32 0 45 -2 12 -4 2 -4 -23z"/>
<path d="M22124 37765 c-10 -8 -29 -15 -41 -15 -13 0 -23 -4 -23 -8 0 -8 56
-50 137 -105 32 -22 48 -43 69 -93 26 -62 27 -68 21 -190 -7 -124 -29 -295
-48 -364 -5 -19 -13 -64 -19 -99 -5 -36 -14 -69 -20 -75 -5 -5 -10 -27 -10
-48 0 -21 -4 -46 -9 -56 -14 -26 -41 -122 -41 -144 0 -41 -34 -118 -52 -118
-19 0 -169 80 -336 179 -57 34 -107 61 -112 61 -5 0 -10 4 -12 9 -1 4 -43 30
-93 56 -49 27 -118 66 -153 87 -34 21 -65 38 -68 38 -4 0 -32 15 -63 34 -31
19 -81 47 -111 64 -73 39 -154 85 -405 229 -167 97 -213 119 -228 112 -15 -9
-72 -21 -272 -61 -27 -5 -61 -11 -75 -13 -14 -2 -65 -11 -115 -20 -264 -47
-352 -61 -431 -69 -23 -2 -75 -9 -115 -15 -145 -23 -206 -32 -359 -51 -290
-37 -325 -42 -350 -51 -14 -5 -54 -11 -90 -12 -36 -2 -72 -7 -80 -10 -8 -3
-26 -6 -40 -6 -14 0 -41 -3 -60 -6 -33 -4 -87 -9 -225 -19 -33 -2 -71 -7 -86
-11 -14 -3 -65 -8 -115 -10 -49 -2 -118 -6 -154 -9 -289 -21 -421 -25 -825
-27 -288 -2 -702 8 -716 16 -3 3 -89 9 -190 14 -101 6 -233 15 -294 20 -60 6
-144 13 -185 16 -76 6 -202 26 -275 44 -22 6 -62 15 -90 21 -45 9 -116 28
-185 50 -14 4 -45 13 -70 20 -25 7 -54 15 -65 20 -21 7 -85 -21 -199 -87 -31
-18 -60 -33 -66 -33 -5 0 -10 -4 -10 -10 0 -5 -4 -10 -9 -10 -4 0 -41 -19 -80
-42 -91 -54 -92 -55 -176 -102 -39 -22 -114 -66 -168 -98 -53 -32 -100 -58
-102 -58 -3 0 -28 -15 -57 -34 -29 -18 -80 -48 -113 -66 -33 -18 -73 -41 -90
-51 -87 -52 -153 -87 -175 -94 -14 -4 -31 -12 -37 -17 -9 -7 -15 -5 -19 8 -4
11 -15 39 -24 64 -10 25 -23 70 -30 100 -7 30 -16 60 -20 65 -4 6 -10 26 -13
45 -3 19 -16 91 -30 160 -46 223 -68 334 -77 380 -4 25 -13 58 -19 73 -17 43
-13 107 9 152 27 57 38 68 109 112 82 50 87 63 24 63 -67 0 -144 -23 -195 -57
-24 -16 -50 -33 -60 -38 -9 -6 -61 -40 -115 -76 -54 -37 -118 -78 -143 -91
-25 -14 -71 -41 -102 -61 -31 -21 -59 -37 -62 -37 -3 0 -32 -16 -66 -36 -66
-39 -127 -59 -209 -69 -30 -3 -64 -11 -75 -17 -12 -7 -44 -12 -72 -13 -54 -2
-59 -5 -262 -158 -151 -115 -199 -144 -457 -277 -88 -45 -189 -99 -225 -120
-99 -57 -135 -77 -260 -143 -63 -33 -124 -66 -135 -74 -11 -7 -26 -13 -34 -13
-8 0 -22 -6 -30 -14 -9 -8 -90 -52 -181 -97 -91 -45 -198 -101 -237 -125 -40
-24 -77 -44 -82 -44 -14 0 -91 -52 -91 -62 0 -4 -8 -8 -18 -8 -10 0 -22 -4
-28 -9 -9 -9 -94 -55 -289 -155 -159 -82 -320 -169 -325 -176 -3 -4 -59 -34
-125 -67 -177 -89 -380 -195 -465 -243 -86 -48 -134 -75 -275 -150 -108 -57
-191 -105 -270 -155 -28 -18 -60 -35 -72 -39 -12 -4 -34 -17 -49 -29 -36 -28
-134 -87 -144 -87 -5 0 -26 -15 -49 -32 -22 -18 -81 -58 -131 -88 -50 -30
-119 -73 -153 -95 -79 -50 -81 -51 -175 -107 -43 -26 -93 -58 -110 -72 -16
-15 -32 -26 -35 -26 -10 0 -178 -113 -274 -183 -86 -62 -212 -141 -273 -169
-19 -9 -70 -32 -112 -52 -42 -20 -85 -36 -95 -36 -10 0 -45 -16 -78 -34 -60
-33 -105 -83 -105 -117 0 -28 -35 -103 -74 -155 -20 -27 -47 -64 -60 -82 -25
-34 -108 -132 -139 -165 -10 -10 -35 -46 -54 -80 -20 -34 -42 -69 -49 -77 -7
-8 -19 -33 -27 -55 -8 -22 -33 -87 -55 -145 -53 -140 -58 -157 -82 -285 -11
-60 -25 -132 -30 -160 -5 -27 -19 -144 -30 -260 -28 -299 -48 -469 -64 -550
-16 -86 -44 -218 -56 -265 -9 -36 -32 -153 -55 -275 -7 -38 -20 -124 -30 -190
-10 -66 -26 -169 -37 -230 -11 -60 -24 -139 -29 -175 -5 -36 -18 -114 -29
-175 -11 -60 -27 -148 -35 -195 -17 -91 -26 -132 -55 -250 -10 -41 -24 -106
-30 -145 -7 -38 -16 -74 -20 -80 -4 -5 -24 -77 -44 -160 -43 -180 -48 -199
-85 -340 -41 -157 -56 -228 -91 -420 -17 -93 -42 -215 -55 -270 -23 -96 -57
-245 -74 -330 -13 -64 -32 -135 -53 -205 -11 -36 -26 -94 -33 -130 -7 -36 -24
-108 -39 -160 -26 -95 -91 -406 -140 -680 -43 -235 -46 -248 -78 -318 -17 -37
-39 -86 -49 -109 -11 -23 -35 -93 -56 -155 -20 -62 -44 -133 -55 -157 -10 -25
-34 -97 -53 -162 -19 -64 -48 -146 -65 -182 -16 -36 -30 -68 -30 -72 0 -4 -24
-75 -54 -159 -52 -145 -106 -327 -106 -354 0 -11 -33 -97 -60 -157 -29 -65
-100 -313 -100 -352 0 -12 -4 -32 -9 -45 -5 -13 -14 -54 -21 -93 -13 -83 -35
-175 -62 -265 -41 -137 -49 -177 -49 -257 0 -91 25 -184 66 -243 13 -19 31
-51 39 -70 8 -19 26 -51 40 -70 31 -40 48 -95 40 -126 -3 -13 -1 -55 6 -93 10
-59 9 -75 -4 -103 -8 -18 -22 -62 -31 -98 -9 -36 -20 -78 -25 -95 -5 -16 -14
-57 -20 -90 -47 -257 -106 -522 -138 -620 -68 -205 -76 -324 -30 -425 14 -30
35 -84 48 -120 43 -121 139 -281 231 -384 44 -50 119 -140 209 -254 63 -81
169 -185 221 -217 24 -15 54 -39 67 -54 54 -62 100 -106 142 -134 25 -17 59
-44 75 -60 72 -68 200 -126 360 -161 44 -10 94 -22 111 -27 68 -20 162 -1 283
58 183 88 260 164 362 357 28 53 81 231 99 331 4 22 15 63 24 90 24 69 23 157
-3 225 -12 30 -21 61 -21 69 0 25 -84 199 -126 262 -22 32 -64 155 -64 186 0
7 19 25 42 40 24 15 68 47 98 71 70 55 79 62 121 91 76 55 250 215 286 264 51
70 123 141 164 162 19 10 61 36 94 59 57 38 64 40 151 44 88 4 94 3 169 -32
42 -20 83 -36 91 -36 26 0 27 -28 9 -183 -35 -311 -40 -393 -64 -1057 -6 -157
-15 -402 -21 -545 -6 -158 -7 -1048 -4 -2260 4 -1526 2 -2079 -7 -2335 -7
-184 -13 -544 -13 -800 0 -457 6 -575 44 -920 28 -259 40 -366 50 -470 19
-200 59 -559 80 -715 10 -82 24 -199 30 -260 5 -60 16 -155 24 -210 15 -106
21 -149 61 -450 50 -387 74 -571 78 -610 3 -22 10 -69 15 -105 10 -58 19 -123
52 -375 5 -38 14 -113 20 -165 19 -181 30 -266 50 -395 11 -71 20 -150 20
-174 0 -25 4 -70 10 -100 5 -31 17 -119 25 -196 20 -180 41 -353 55 -435 5
-36 15 -103 20 -150 6 -47 16 -121 24 -165 8 -44 19 -120 26 -170 6 -49 15
-124 20 -165 5 -41 14 -127 20 -190 6 -63 17 -167 25 -230 23 -196 44 -390 56
-520 6 -69 15 -144 20 -168 26 -119 57 -432 69 -697 9 -188 30 -465 60 -765
21 -214 30 -319 41 -490 6 -96 15 -193 19 -215 5 -22 11 -94 15 -160 3 -66 10
-140 15 -165 5 -25 12 -74 15 -110 13 -141 25 -238 35 -266 5 -16 16 -108 25
-204 9 -96 22 -224 30 -285 7 -60 23 -186 34 -280 12 -93 31 -242 42 -330 12
-88 27 -207 34 -265 32 -251 53 -373 102 -565 19 -77 39 -158 44 -180 4 -22
14 -67 22 -100 8 -33 20 -91 26 -130 7 -38 19 -92 26 -120 13 -47 34 -154 75
-380 10 -55 28 -135 39 -177 21 -80 64 -282 86 -403 27 -145 39 -194 82 -333
44 -140 45 -145 38 -235 -5 -71 -3 -102 9 -137 26 -76 44 -171 51 -265 3 -49
13 -134 21 -187 8 -54 14 -118 14 -143 0 -48 8 -86 46 -234 28 -105 46 -136
101 -173 l38 -26 170 9 c232 11 268 15 307 32 83 37 286 97 328 97 25 0 138
78 230 158 47 41 92 77 100 80 19 7 65 40 166 118 129 98 264 173 382 210 59
19 111 34 117 34 5 0 60 15 120 35 239 75 371 115 383 115 8 0 28 6 45 14 78
35 390 112 509 125 109 13 215 32 468 88 113 25 241 51 285 58 109 18 418 49
600 61 50 3 97 8 104 10 15 5 92 10 576 39 138 8 270 17 295 20 25 2 88 9 140
15 52 5 361 13 685 16 325 4 610 8 635 9 25 2 234 6 465 9 231 4 503 11 605
17 156 8 197 7 258 -6 40 -8 202 -22 360 -30 316 -17 432 -31 567 -71 50 -14
124 -33 165 -41 88 -18 100 -26 100 -63 0 -15 6 -43 14 -62 17 -40 96 -116
146 -139 60 -29 261 -81 360 -95 107 -15 777 -48 800 -40 8 3 81 12 162 20
194 20 252 48 287 141 18 46 22 50 67 62 65 17 276 16 449 -2 77 -8 182 -15
233 -15 116 0 232 -12 487 -51 110 -17 247 -37 305 -44 105 -13 350 -55 425
-73 22 -5 74 -19 115 -30 41 -11 116 -27 165 -36 174 -33 264 -66 344 -128 13
-10 31 -18 39 -18 8 0 60 -23 115 -51 55 -28 112 -55 126 -59 14 -5 58 -20 96
-35 39 -15 99 -35 135 -45 36 -11 106 -32 155 -49 169 -56 230 -71 364 -91
182 -27 187 -27 226 15 35 37 59 98 70 180 4 27 20 101 37 165 53 202 66 263
73 335 3 39 12 93 20 120 30 109 35 156 33 305 -3 135 0 172 24 290 15 74 34
205 43 290 9 85 20 169 25 185 9 29 54 258 72 364 5 29 15 112 23 185 8 72 22
178 30 236 21 147 44 329 55 435 5 50 12 104 14 120 3 17 10 107 16 200 10
165 23 246 60 370 10 33 22 78 28 100 5 22 15 54 20 70 38 107 142 519 185
735 9 41 27 127 42 191 14 63 37 167 51 230 13 62 29 130 33 149 28 115 85
402 121 610 12 69 28 158 36 198 8 40 26 139 40 219 13 80 27 150 30 154 3 5
9 39 14 77 5 37 13 90 19 117 5 28 17 95 26 150 10 55 22 123 27 150 5 28 18
104 28 170 10 66 33 201 50 300 17 99 35 212 40 250 5 39 14 97 20 130 5 33
16 110 25 170 20 142 42 279 60 380 8 44 15 99 15 122 0 23 5 54 11 70 9 25
19 86 49 318 5 39 27 162 49 275 22 113 45 234 52 270 7 36 15 74 20 85 4 11
21 97 38 190 17 94 36 193 43 220 6 28 14 73 18 100 8 52 33 177 50 255 6 25
17 81 25 125 7 44 19 105 25 135 34 170 53 270 75 395 14 77 32 172 39 210 39
199 70 380 91 530 8 55 22 138 30 185 9 47 19 99 21 115 11 73 35 220 55 335
12 69 25 157 29 197 5 39 11 81 15 93 8 26 28 141 55 315 11 72 25 159 31 195
6 36 14 97 19 135 4 39 22 171 39 295 46 329 60 432 77 560 25 194 32 250 54
405 24 172 36 269 55 445 7 69 20 175 29 235 9 61 22 171 30 245 8 74 19 164
25 200 27 172 56 531 71 870 18 410 50 1246 61 1585 5 176 17 469 25 650 21
460 36 1181 34 1695 0 239 2 553 6 698 6 237 8 262 24 262 9 0 25 -10 36 -22
11 -13 60 -57 108 -98 49 -41 143 -124 210 -183 66 -60 133 -116 149 -125 15
-9 27 -22 27 -29 0 -7 8 -17 18 -22 10 -5 33 -37 50 -69 22 -40 49 -72 84 -99
52 -39 54 -42 88 -152 33 -107 40 -120 133 -244 54 -73 120 -152 146 -177 27
-25 62 -66 79 -91 41 -61 127 -138 193 -172 30 -16 86 -48 124 -72 39 -25 93
-58 120 -74 28 -17 70 -43 94 -58 24 -15 58 -37 76 -48 50 -32 165 -125 228
-185 32 -30 71 -61 88 -69 28 -14 33 -13 114 29 72 37 153 92 291 197 16 13
54 39 84 59 30 20 66 45 80 55 100 75 140 107 176 138 53 47 78 68 145 118
182 136 307 386 354 709 9 60 18 116 21 125 2 8 70 83 151 165 80 82 154 164
164 182 9 17 36 89 59 160 24 70 49 143 58 162 8 19 18 49 23 65 4 17 14 48
23 70 22 58 20 87 -14 158 -16 35 -30 73 -30 85 0 11 -5 33 -10 48 -6 15 -13
44 -15 63 -2 20 -11 79 -20 131 -8 52 -24 154 -35 225 -10 72 -21 137 -24 145
-3 8 -10 67 -16 131 -11 126 -33 225 -75 334 -88 230 -104 309 -115 575 -5
135 -16 253 -25 295 -23 103 -31 152 -55 345 -11 96 -28 219 -35 272 -8 53
-15 110 -15 127 0 16 -7 56 -15 88 -13 51 -45 296 -74 563 -11 105 -45 288
-65 355 -8 28 -20 84 -25 125 -13 100 -36 245 -54 350 -30 169 -56 347 -62
420 -7 89 -22 199 -71 500 -20 124 -41 257 -46 295 -4 39 -13 84 -18 100 -6
17 -14 62 -19 100 -9 67 -71 434 -91 540 -11 58 -59 353 -66 405 -5 35 -34
167 -59 270 -7 30 -23 107 -35 170 -12 63 -31 149 -42 190 -12 41 -24 93 -28
115 -4 22 -17 81 -29 130 -33 134 -33 134 -47 215 -7 41 -20 113 -29 160 -17
91 -29 165 -46 300 -6 47 -17 110 -25 140 -8 30 -14 71 -14 91 0 20 -7 54 -16
75 -9 22 -20 62 -24 89 -5 28 -16 91 -25 140 -9 50 -21 115 -27 145 -28 155
-45 238 -54 252 -4 6 -11 28 -15 47 -15 73 -69 318 -84 376 -8 33 -25 105 -39
160 -34 139 -55 224 -66 265 -6 19 -19 80 -30 135 -11 55 -26 126 -35 158 -8
32 -15 86 -15 120 -1 78 -16 146 -39 172 -10 11 -32 45 -49 75 -17 30 -42 66
-54 80 -30 32 -173 209 -240 297 -151 198 -432 469 -621 599 -223 154 -410
274 -425 274 -5 0 -15 7 -22 15 -13 15 -82 58 -172 107 -28 15 -66 37 -86 51
-79 51 -119 76 -177 107 -33 18 -76 43 -95 55 -51 32 -188 114 -241 144 -80
45 -220 125 -268 153 -25 15 -73 41 -106 58 -105 54 -150 79 -163 90 -7 6 -29
18 -49 26 -19 9 -63 32 -97 52 -77 47 -106 63 -186 105 -101 53 -289 160 -352
201 -32 20 -68 40 -81 45 -13 5 -102 53 -198 107 -96 54 -208 115 -249 137
-41 21 -102 55 -135 75 -33 20 -81 47 -107 59 -25 11 -70 37 -99 57 -30 20
-57 36 -62 36 -4 0 -70 36 -145 79 -76 44 -178 99 -227 123 -49 23 -101 53
-115 66 -14 12 -29 22 -34 22 -12 0 -384 188 -416 210 -14 10 -58 34 -99 54
-89 44 -126 72 -256 195 -136 129 -169 151 -219 151 -29 0 -76 17 -171 64 -71
35 -150 73 -175 84 -25 12 -67 34 -95 50 -164 97 -227 132 -235 132 -14 0
-151 113 -210 175 -30 31 -76 68 -102 81 -55 28 -133 32 -164 9z m-4543 -2042
c-32 -8 -65 -11 -80 -7 -25 7 -25 8 9 14 19 4 55 8 80 8 l45 0 -54 -15z m127
0 c-10 -2 -28 -2 -40 0 -13 2 -5 4 17 4 22 1 32 -1 23 -4z m2458 -8573 c15 -6
37 -35 60 -82 53 -106 82 -148 97 -142 7 2 30 34 52 70 21 36 53 81 71 101 34
36 43 37 116 17 32 -9 31 -73 -2 -104 -21 -20 -173 -266 -181 -292 -5 -18 -9
-58 -9 -88 0 -81 -20 -233 -33 -249 -8 -9 -25 -12 -54 -8 -75 8 -75 7 -67 202
l7 172 -64 119 c-35 65 -66 123 -68 129 -2 5 -12 28 -22 50 -17 40 -24 72 -21
109 2 16 8 17 49 11 25 -4 57 -11 69 -15z m-2170 -32 c13 -13 25 -173 41 -563
7 -186 4 -195 -70 -195 -29 0 -58 4 -65 8 -8 6 -16 50 -21 128 -5 65 -12 127
-16 137 -10 24 -42 30 -121 20 l-69 -8 -5 -135 c-3 -74 -9 -141 -13 -147 -5
-8 -30 -13 -62 -13 -32 0 -57 5 -62 13 -4 6 -11 104 -14 217 -4 113 -11 261
-14 330 -5 85 -4 139 4 168 11 40 14 42 49 42 67 0 78 -16 86 -122 3 -51 11
-110 17 -130 l10 -38 79 0 c43 0 85 3 94 6 14 5 16 27 16 140 0 126 1 134 23
149 25 19 92 15 113 -7z m3208 -199 c-1 -98 -6 -190 -12 -207 -6 -17 -16 -74
-23 -127 -9 -64 -17 -95 -26 -95 -16 0 -17 -22 -2 -37 12 -12 -2 -79 -17 -75
-12 3 -7 476 7 577 16 118 26 147 52 143 22 -3 22 -6 21 -179z m836 117 c185
-44 261 -132 245 -283 -10 -95 -29 -136 -91 -192 -64 -59 -66 -71 -24 -170 17
-39 33 -91 37 -116 l6 -45 -41 0 c-23 0 -57 8 -77 17 -31 15 -39 28 -71 109
-19 50 -41 100 -48 109 -15 21 -36 12 -36 -16 0 -39 -33 -151 -46 -156 -22 -8
-64 6 -89 31 -25 25 -25 25 13 216 41 206 52 267 52 298 0 41 31 184 43 200
12 15 57 15 127 -2z m-5426 -22 c12 -5 16 -20 16 -63 0 -31 -4 -61 -8 -68 -8
-12 -64 -26 -155 -38 -56 -7 -63 -19 -51 -78 l9 -42 100 0 100 0 3 -72 c3 -82
9 -77 -102 -92 -88 -13 -102 -26 -90 -83 l9 -43 105 -5 105 -5 3 -66 c2 -45
-1 -69 -10 -77 -17 -14 -155 -32 -248 -33 -56 -1 -77 3 -85 15 -7 9 -15 69
-19 133 -3 65 -11 172 -16 238 -14 175 -13 352 2 361 26 16 299 31 332 18z
m-1210 -84 c25 -9 26 -12 26 -102 0 -51 -5 -133 -10 -183 -6 -49 -15 -166 -20
-259 -12 -204 -17 -216 -90 -216 -75 0 -92 21 -134 165 -60 206 -98 307 -108
289 -5 -8 -20 -85 -64 -319 -16 -89 -28 -124 -46 -136 -13 -8 -117 8 -132 21
-8 6 -24 54 -36 108 -12 53 -31 133 -42 177 -63 248 -79 329 -76 383 l3 57 51
3 c36 2 56 -2 67 -12 8 -9 37 -106 63 -216 26 -110 51 -200 55 -200 9 0 22 63
43 205 25 167 35 207 54 221 19 15 80 18 100 5 7 -4 44 -100 82 -212 38 -112
74 -205 80 -207 6 -2 10 18 10 50 1 118 19 348 30 367 12 23 51 28 94 11z
m-1575 -119 c15 -15 20 -40 25 -127 6 -107 13 -177 37 -419 15 -148 11 -171
-34 -179 -40 -8 -93 9 -102 32 -4 9 -13 61 -21 115 -19 134 -22 139 -87 132
-29 -4 -68 -13 -89 -22 l-36 -15 5 -135 c7 -147 5 -153 -50 -153 -68 0 -70 6
-87 245 -6 77 -15 204 -21 282 -6 82 -6 155 -1 175 7 29 13 33 45 36 66 6 72
-4 86 -127 16 -149 13 -144 75 -136 28 3 67 13 87 21 33 14 37 21 43 61 3 25
6 83 6 127 0 51 5 87 12 94 19 19 85 15 107 -7z m9055 -132 c45 -50 46 -52 46
-120 0 -76 -15 -96 -49 -65 -17 16 -19 16 -25 1 -15 -41 -6 -93 24 -130 34
-43 36 -63 14 -128 -16 -46 -27 -57 -39 -37 -3 6 -10 10 -16 10 -15 0 -10 -61
11 -120 20 -57 26 -165 11 -189 -6 -10 -20 2 -52 45 -36 49 -43 66 -42 99 1
22 6 164 12 315 12 326 16 370 41 370 10 0 39 -23 64 -51z m-10225 -241 c9
-24 31 -126 51 -238 6 -36 18 -94 26 -130 8 -36 16 -103 17 -150 2 -79 1 -85
-18 -85 -15 0 -21 9 -27 44 -11 67 -20 69 -77 21 -47 -40 -51 -47 -52 -89 -2
-76 -11 -96 -43 -96 -47 0 -52 21 -31 127 21 108 28 146 48 283 30 194 49 300
58 318 13 24 38 21 48 -5z m11106 -95 c43 -20 43 -30 9 -157 -35 -132 -32
-146 31 -163 47 -12 125 -18 125 -9 0 13 73 204 85 223 20 30 62 30 106 0 41
-28 41 -39 -6 -187 -18 -58 -47 -159 -65 -225 -52 -196 -99 -321 -124 -331
-23 -9 -80 13 -105 40 l-23 24 31 107 c34 118 37 150 19 162 -20 13 -100 32
-135 33 -31 0 -32 0 -62 -102 -45 -148 -55 -168 -87 -168 -15 0 -42 9 -60 21
-37 22 -42 46 -23 96 6 15 15 43 20 61 5 17 13 47 18 65 23 80 64 230 87 316
32 118 53 182 66 199 14 17 51 15 93 -5z m-12064 -123 c22 -12 25 -54 8 -97
-20 -50 -27 -67 -58 -138 -62 -147 -66 -168 -52 -274 19 -141 25 -261 14 -272
-12 -12 -80 -14 -111 -5 -15 5 -22 18 -27 49 -43 290 -47 304 -115 387 -44 55
-131 177 -147 207 -12 24 -16 45 -14 76 1 16 9 18 68 15 l67 -3 38 -55 c58
-83 99 -131 111 -127 5 1 16 21 24 42 72 194 79 205 134 205 22 0 49 -5 60
-10z m4664 -11100 c3 -5 1 -10 -4 -10 -6 0 -11 5 -11 10 0 6 2 10 4 10 3 0 8
-4 11 -10z"/>
<path d="M21141 26654 c0 -11 3 -14 6 -6 3 7 2 16 -1 19 -3 4 -6 -2 -5 -13z"/>
<path d="M22019 26864 c-8 -10 -13 -44 -14 -92 l0 -77 44 -3 c61 -5 91 24 91
87 0 51 -4 60 -40 84 -31 21 -64 22 -81 1z"/>
<path d="M12626 26232 c-3 -5 -8 -53 -12 -109 -8 -113 0 -130 42 -88 24 24 26
31 19 73 -3 26 -8 61 -10 79 -4 46 -24 69 -39 45z"/>
</g>
</svg>
